<svg width="1440" height="188" viewBox="0 0 1440 188" fill="none" xmlns="http://www.w3.org/2000/svg">
<mask id="path-1-outside-1_2_5" maskUnits="userSpaceOnUse" x="-129" y="-3" width="1700" height="382" fill="black">
<rect fill="white" x="-129" y="-3" width="1700" height="382"/>
<path d="M43.0234 238.906H-53.6562L-72.9922 320.547C-74.4245 327.708 -75.1406 333.438 -75.1406 337.734C-75.1406 343.464 -74.4245 349.193 -72.9922 354.922C-70.1276 360.651 -63.6823 363.516 -53.6562 363.516H-47.2109V376.406H-126.703V363.516H-120.258C-114.529 363.516 -109.516 362.083 -105.219 359.219C-100.922 354.922 -98.0573 348.477 -96.625 339.883L-12.8359 11.1719L19.3906 0.429688L101.031 339.883C103.896 348.477 107.477 354.922 111.773 359.219C116.07 362.083 121.083 363.516 126.812 363.516H133.258V376.406H40.875V363.516H49.4688C58.0625 363.516 63.0755 362.083 64.5078 359.219C65.9401 354.922 66.6562 351.341 66.6562 348.477C66.6562 342.747 65.9401 337.734 64.5078 333.438L43.0234 238.906ZM-2.09375 47.6953H-4.24219L-49.3594 226.016H40.875L-2.09375 47.6953ZM114.438 346.328C114.438 352.057 115.87 356.354 118.734 359.219C123.031 362.083 128.044 363.516 133.773 363.516H191.781C211.833 363.516 229.021 357.786 243.344 346.328C257.667 333.438 268.409 314.102 275.57 288.32L286.312 292.617L266.977 376.406H45.6875V363.516H60.7266C67.888 363.516 72.901 362.083 75.7656 359.219C78.6302 356.354 80.0625 352.057 80.0625 346.328V39.1016C80.0625 33.3724 78.6302 29.0755 75.7656 26.2109C72.901 23.3464 67.888 21.9141 60.7266 21.9141H47.8359V9.02344H148.812V21.9141H133.773C128.044 21.9141 123.031 23.3464 118.734 26.2109C115.87 29.0755 114.438 33.3724 114.438 39.1016V346.328ZM205.188 21.9141V9.02344H415.734L439.367 82.0703L428.625 86.3672C417.167 64.8828 404.992 49.1276 392.102 39.1016C379.211 27.6432 364.888 21.9141 349.133 21.9141H288.977C283.247 21.9141 278.234 23.3464 273.938 26.2109C271.073 29.0755 269.641 33.3724 269.641 39.1016V172.305H331.945C346.268 172.305 356.294 168.724 362.023 161.562C369.185 154.401 372.766 143.659 372.766 129.336V116.445H385.656V243.203H372.766V234.609C372.766 218.854 369.185 206.68 362.023 198.086C356.294 189.492 346.268 185.195 331.945 185.195H269.641V346.328C269.641 352.057 271.073 356.354 273.938 359.219C278.234 362.083 283.247 363.516 288.977 363.516H344.836C366.32 363.516 384.224 357.786 398.547 346.328C414.302 333.438 426.477 314.102 435.07 288.32L445.812 292.617L422.18 376.406H203.039V363.516H215.93C223.091 363.516 228.104 362.083 230.969 359.219C233.833 356.354 235.266 352.057 235.266 346.328V39.1016C235.266 33.3724 233.833 29.0755 230.969 26.2109C228.104 23.3464 223.091 21.9141 215.93 21.9141H205.188ZM497.891 178.75L573.086 339.883C577.383 348.477 581.68 354.922 585.977 359.219C591.706 362.083 597.435 363.516 603.164 363.516H609.609V376.406H517.227V363.516H525.82C532.982 363.516 537.279 362.799 538.711 361.367C540.143 358.503 540.859 355.638 540.859 352.773C540.859 349.909 540.143 347.044 538.711 344.18L480.703 217.422L431.289 320.547C428.424 327.708 426.276 333.438 424.844 337.734C421.979 343.464 420.547 347.044 420.547 348.477C420.547 354.206 421.979 358.503 424.844 361.367C429.141 362.799 434.154 363.516 439.883 363.516H444.18V376.406H362.539V363.516H371.133C378.294 363.516 384.74 361.367 390.469 357.07C396.198 352.773 400.495 347.76 403.359 342.031L472.109 195.938L399.062 36.9531C397.63 32.6562 394.766 29.0755 390.469 26.2109C387.604 23.3464 383.307 21.9141 377.578 21.9141H368.984V9.02344H457.07V21.9141H450.625C442.031 21.9141 437.018 24.0625 435.586 28.3594C434.154 32.6562 434.87 39.1016 437.734 47.6953L489.297 161.562L540.859 51.9922C545.156 41.9661 546.589 34.8047 545.156 30.5078C543.724 24.7786 538.711 21.9141 530.117 21.9141H517.227V9.02344H601.016V21.9141H588.125C585.26 21.9141 581.68 23.3464 577.383 26.2109C573.086 29.0755 568.789 33.3724 564.492 39.1016L497.891 178.75ZM681.023 238.906H584.344L565.008 320.547C563.576 327.708 562.859 333.438 562.859 337.734C562.859 343.464 563.576 349.193 565.008 354.922C567.872 360.651 574.318 363.516 584.344 363.516H590.789V376.406H511.297V363.516H517.742C523.471 363.516 528.484 362.083 532.781 359.219C537.078 354.922 539.943 348.477 541.375 339.883L625.164 11.1719L657.391 0.429688L739.031 339.883C741.896 348.477 745.477 354.922 749.773 359.219C754.07 362.083 759.083 363.516 764.812 363.516H771.258V376.406H678.875V363.516H687.469C696.062 363.516 701.076 362.083 702.508 359.219C703.94 354.922 704.656 351.341 704.656 348.477C704.656 342.747 703.94 337.734 702.508 333.438L681.023 238.906ZM635.906 47.6953H633.758L588.641 226.016H678.875L635.906 47.6953ZM883.492 290.469H887.789V39.1016C887.789 33.3724 886.357 29.0755 883.492 26.2109C880.628 23.3464 875.615 21.9141 868.453 21.9141H851.266V9.02344H937.203V21.9141H920.016C914.286 21.9141 909.273 23.3464 904.977 26.2109C902.112 29.0755 900.68 33.3724 900.68 39.1016V376.406H887.789L724.508 56.2891H720.211V346.328C720.211 352.057 721.643 356.354 724.508 359.219C728.805 362.083 733.818 363.516 739.547 363.516H756.734V376.406H670.797V363.516H687.984C695.146 363.516 700.159 362.083 703.023 359.219C705.888 356.354 707.32 352.057 707.32 346.328V39.1016C707.32 33.3724 705.888 29.0755 703.023 26.2109C700.159 23.3464 695.146 21.9141 687.984 21.9141H675.094V9.02344H737.398L883.492 290.469ZM1040.84 189.492C1040.84 127.904 1031.53 84.9349 1012.91 60.5859C994.294 34.8047 968.513 21.9141 935.57 21.9141C925.544 21.9141 917.667 23.3464 911.938 26.2109C907.641 29.0755 905.492 33.3724 905.492 39.1016V346.328C905.492 352.057 907.641 356.354 911.938 359.219C916.234 362.083 921.964 363.516 929.125 363.516C960.635 363.516 987.133 352.057 1008.62 329.141C1030.1 304.792 1040.84 258.242 1040.84 189.492ZM871.117 39.1016C871.117 33.3724 869.685 29.0755 866.82 26.2109C863.956 23.3464 858.943 21.9141 851.781 21.9141H838.891V9.02344H935.57C979.971 9.02344 1015.06 23.3464 1040.84 51.9922C1068.06 80.638 1081.66 125.039 1081.66 185.195C1081.66 251.081 1068.77 299.779 1042.99 331.289C1017.21 361.367 979.255 376.406 929.125 376.406H836.742V363.516H851.781C858.943 363.516 863.956 362.083 866.82 359.219C869.685 356.354 871.117 352.057 871.117 346.328V39.1016ZM1228.27 94.9609C1228.27 123.607 1220.4 145.807 1204.64 161.562C1188.89 177.318 1170.98 186.628 1150.93 189.492L1215.38 348.477C1218.25 354.206 1221.11 358.503 1223.98 361.367C1228.27 362.799 1232.57 363.516 1236.87 363.516H1249.76V376.406H1189.6L1118.7 191.641H1069.29V346.328C1069.29 352.057 1070.72 356.354 1073.59 359.219C1077.88 362.083 1082.9 363.516 1088.62 363.516H1101.52V376.406H1002.69V363.516H1015.58C1022.74 363.516 1027.75 362.083 1030.62 359.219C1033.48 356.354 1034.91 352.057 1034.91 346.328V39.1016C1034.91 33.3724 1033.48 29.0755 1030.62 26.2109C1027.75 23.3464 1022.74 21.9141 1015.58 21.9141H1002.69V9.02344H1125.15C1158.09 9.02344 1183.16 16.1849 1200.34 30.5078C1218.96 44.8307 1228.27 66.3151 1228.27 94.9609ZM1069.29 178.75H1116.55C1138.04 178.75 1155.94 172.305 1170.27 159.414C1184.59 146.523 1191.75 126.471 1191.75 99.2578C1191.75 74.9089 1185.3 56.2891 1172.41 43.3984C1159.52 29.0755 1139.47 21.9141 1112.26 21.9141H1088.62C1082.9 21.9141 1077.88 23.3464 1073.59 26.2109C1070.72 29.0755 1069.29 33.3724 1069.29 39.1016V178.75ZM1196.56 21.9141V9.02344H1368.44V21.9141H1319.02C1313.29 21.9141 1308.28 23.3464 1303.98 26.2109C1301.12 29.0755 1299.69 33.3724 1299.69 39.1016V346.328C1299.69 352.057 1301.12 356.354 1303.98 359.219C1308.28 362.083 1313.29 363.516 1319.02 363.516H1368.44V376.406H1196.56V363.516H1245.98C1253.14 363.516 1258.15 362.083 1261.02 359.219C1263.88 356.354 1265.31 352.057 1265.31 346.328V39.1016C1265.31 33.3724 1263.88 29.0755 1261.02 26.2109C1258.15 23.3464 1253.14 21.9141 1245.98 21.9141H1196.56ZM1478.52 238.906H1381.84L1362.51 320.547C1361.08 327.708 1360.36 333.438 1360.36 337.734C1360.36 343.464 1361.08 349.193 1362.51 354.922C1365.37 360.651 1371.82 363.516 1381.84 363.516H1388.29V376.406H1308.8V363.516H1315.24C1320.97 363.516 1325.98 362.083 1330.28 359.219C1334.58 354.922 1337.44 348.477 1338.88 339.883L1422.66 11.1719L1454.89 0.429688L1536.53 339.883C1539.4 348.477 1542.98 354.922 1547.27 359.219C1551.57 362.083 1556.58 363.516 1562.31 363.516H1568.76V376.406H1476.38V363.516H1484.97C1493.56 363.516 1498.58 362.083 1500.01 359.219C1501.44 354.922 1502.16 351.341 1502.16 348.477C1502.16 342.747 1501.44 337.734 1500.01 333.438L1478.52 238.906ZM1433.41 47.6953H1431.26L1386.14 226.016H1476.38L1433.41 47.6953Z"/>
</mask>
<path d="M43.0234 238.906H-53.6562L-72.9922 320.547C-74.4245 327.708 -75.1406 333.438 -75.1406 337.734C-75.1406 343.464 -74.4245 349.193 -72.9922 354.922C-70.1276 360.651 -63.6823 363.516 -53.6562 363.516H-47.2109V376.406H-126.703V363.516H-120.258C-114.529 363.516 -109.516 362.083 -105.219 359.219C-100.922 354.922 -98.0573 348.477 -96.625 339.883L-12.8359 11.1719L19.3906 0.429688L101.031 339.883C103.896 348.477 107.477 354.922 111.773 359.219C116.07 362.083 121.083 363.516 126.812 363.516H133.258V376.406H40.875V363.516H49.4688C58.0625 363.516 63.0755 362.083 64.5078 359.219C65.9401 354.922 66.6562 351.341 66.6562 348.477C66.6562 342.747 65.9401 337.734 64.5078 333.438L43.0234 238.906ZM-2.09375 47.6953H-4.24219L-49.3594 226.016H40.875L-2.09375 47.6953ZM114.438 346.328C114.438 352.057 115.87 356.354 118.734 359.219C123.031 362.083 128.044 363.516 133.773 363.516H191.781C211.833 363.516 229.021 357.786 243.344 346.328C257.667 333.438 268.409 314.102 275.57 288.32L286.312 292.617L266.977 376.406H45.6875V363.516H60.7266C67.888 363.516 72.901 362.083 75.7656 359.219C78.6302 356.354 80.0625 352.057 80.0625 346.328V39.1016C80.0625 33.3724 78.6302 29.0755 75.7656 26.2109C72.901 23.3464 67.888 21.9141 60.7266 21.9141H47.8359V9.02344H148.812V21.9141H133.773C128.044 21.9141 123.031 23.3464 118.734 26.2109C115.87 29.0755 114.438 33.3724 114.438 39.1016V346.328ZM205.188 21.9141V9.02344H415.734L439.367 82.0703L428.625 86.3672C417.167 64.8828 404.992 49.1276 392.102 39.1016C379.211 27.6432 364.888 21.9141 349.133 21.9141H288.977C283.247 21.9141 278.234 23.3464 273.938 26.2109C271.073 29.0755 269.641 33.3724 269.641 39.1016V172.305H331.945C346.268 172.305 356.294 168.724 362.023 161.562C369.185 154.401 372.766 143.659 372.766 129.336V116.445H385.656V243.203H372.766V234.609C372.766 218.854 369.185 206.68 362.023 198.086C356.294 189.492 346.268 185.195 331.945 185.195H269.641V346.328C269.641 352.057 271.073 356.354 273.938 359.219C278.234 362.083 283.247 363.516 288.977 363.516H344.836C366.32 363.516 384.224 357.786 398.547 346.328C414.302 333.438 426.477 314.102 435.07 288.32L445.812 292.617L422.18 376.406H203.039V363.516H215.93C223.091 363.516 228.104 362.083 230.969 359.219C233.833 356.354 235.266 352.057 235.266 346.328V39.1016C235.266 33.3724 233.833 29.0755 230.969 26.2109C228.104 23.3464 223.091 21.9141 215.93 21.9141H205.188ZM497.891 178.75L573.086 339.883C577.383 348.477 581.68 354.922 585.977 359.219C591.706 362.083 597.435 363.516 603.164 363.516H609.609V376.406H517.227V363.516H525.82C532.982 363.516 537.279 362.799 538.711 361.367C540.143 358.503 540.859 355.638 540.859 352.773C540.859 349.909 540.143 347.044 538.711 344.18L480.703 217.422L431.289 320.547C428.424 327.708 426.276 333.438 424.844 337.734C421.979 343.464 420.547 347.044 420.547 348.477C420.547 354.206 421.979 358.503 424.844 361.367C429.141 362.799 434.154 363.516 439.883 363.516H444.18V376.406H362.539V363.516H371.133C378.294 363.516 384.74 361.367 390.469 357.07C396.198 352.773 400.495 347.76 403.359 342.031L472.109 195.938L399.062 36.9531C397.63 32.6562 394.766 29.0755 390.469 26.2109C387.604 23.3464 383.307 21.9141 377.578 21.9141H368.984V9.02344H457.07V21.9141H450.625C442.031 21.9141 437.018 24.0625 435.586 28.3594C434.154 32.6562 434.87 39.1016 437.734 47.6953L489.297 161.562L540.859 51.9922C545.156 41.9661 546.589 34.8047 545.156 30.5078C543.724 24.7786 538.711 21.9141 530.117 21.9141H517.227V9.02344H601.016V21.9141H588.125C585.26 21.9141 581.68 23.3464 577.383 26.2109C573.086 29.0755 568.789 33.3724 564.492 39.1016L497.891 178.75ZM681.023 238.906H584.344L565.008 320.547C563.576 327.708 562.859 333.438 562.859 337.734C562.859 343.464 563.576 349.193 565.008 354.922C567.872 360.651 574.318 363.516 584.344 363.516H590.789V376.406H511.297V363.516H517.742C523.471 363.516 528.484 362.083 532.781 359.219C537.078 354.922 539.943 348.477 541.375 339.883L625.164 11.1719L657.391 0.429688L739.031 339.883C741.896 348.477 745.477 354.922 749.773 359.219C754.07 362.083 759.083 363.516 764.812 363.516H771.258V376.406H678.875V363.516H687.469C696.062 363.516 701.076 362.083 702.508 359.219C703.94 354.922 704.656 351.341 704.656 348.477C704.656 342.747 703.94 337.734 702.508 333.438L681.023 238.906ZM635.906 47.6953H633.758L588.641 226.016H678.875L635.906 47.6953ZM883.492 290.469H887.789V39.1016C887.789 33.3724 886.357 29.0755 883.492 26.2109C880.628 23.3464 875.615 21.9141 868.453 21.9141H851.266V9.02344H937.203V21.9141H920.016C914.286 21.9141 909.273 23.3464 904.977 26.2109C902.112 29.0755 900.68 33.3724 900.68 39.1016V376.406H887.789L724.508 56.2891H720.211V346.328C720.211 352.057 721.643 356.354 724.508 359.219C728.805 362.083 733.818 363.516 739.547 363.516H756.734V376.406H670.797V363.516H687.984C695.146 363.516 700.159 362.083 703.023 359.219C705.888 356.354 707.32 352.057 707.32 346.328V39.1016C707.32 33.3724 705.888 29.0755 703.023 26.2109C700.159 23.3464 695.146 21.9141 687.984 21.9141H675.094V9.02344H737.398L883.492 290.469ZM1040.84 189.492C1040.84 127.904 1031.53 84.9349 1012.91 60.5859C994.294 34.8047 968.513 21.9141 935.57 21.9141C925.544 21.9141 917.667 23.3464 911.938 26.2109C907.641 29.0755 905.492 33.3724 905.492 39.1016V346.328C905.492 352.057 907.641 356.354 911.938 359.219C916.234 362.083 921.964 363.516 929.125 363.516C960.635 363.516 987.133 352.057 1008.62 329.141C1030.1 304.792 1040.84 258.242 1040.84 189.492ZM871.117 39.1016C871.117 33.3724 869.685 29.0755 866.82 26.2109C863.956 23.3464 858.943 21.9141 851.781 21.9141H838.891V9.02344H935.57C979.971 9.02344 1015.06 23.3464 1040.84 51.9922C1068.06 80.638 1081.66 125.039 1081.66 185.195C1081.66 251.081 1068.77 299.779 1042.99 331.289C1017.21 361.367 979.255 376.406 929.125 376.406H836.742V363.516H851.781C858.943 363.516 863.956 362.083 866.82 359.219C869.685 356.354 871.117 352.057 871.117 346.328V39.1016ZM1228.27 94.9609C1228.27 123.607 1220.4 145.807 1204.64 161.562C1188.89 177.318 1170.98 186.628 1150.93 189.492L1215.38 348.477C1218.25 354.206 1221.11 358.503 1223.98 361.367C1228.27 362.799 1232.57 363.516 1236.87 363.516H1249.76V376.406H1189.6L1118.7 191.641H1069.29V346.328C1069.29 352.057 1070.72 356.354 1073.59 359.219C1077.88 362.083 1082.9 363.516 1088.62 363.516H1101.52V376.406H1002.69V363.516H1015.58C1022.74 363.516 1027.75 362.083 1030.62 359.219C1033.48 356.354 1034.91 352.057 1034.91 346.328V39.1016C1034.91 33.3724 1033.48 29.0755 1030.62 26.2109C1027.75 23.3464 1022.74 21.9141 1015.58 21.9141H1002.69V9.02344H1125.15C1158.09 9.02344 1183.16 16.1849 1200.34 30.5078C1218.96 44.8307 1228.27 66.3151 1228.27 94.9609ZM1069.29 178.75H1116.55C1138.04 178.75 1155.94 172.305 1170.27 159.414C1184.59 146.523 1191.75 126.471 1191.75 99.2578C1191.75 74.9089 1185.3 56.2891 1172.41 43.3984C1159.52 29.0755 1139.47 21.9141 1112.26 21.9141H1088.62C1082.9 21.9141 1077.88 23.3464 1073.59 26.2109C1070.72 29.0755 1069.29 33.3724 1069.29 39.1016V178.75ZM1196.56 21.9141V9.02344H1368.44V21.9141H1319.02C1313.29 21.9141 1308.28 23.3464 1303.98 26.2109C1301.12 29.0755 1299.69 33.3724 1299.69 39.1016V346.328C1299.69 352.057 1301.12 356.354 1303.98 359.219C1308.28 362.083 1313.29 363.516 1319.02 363.516H1368.44V376.406H1196.56V363.516H1245.98C1253.14 363.516 1258.15 362.083 1261.02 359.219C1263.88 356.354 1265.31 352.057 1265.31 346.328V39.1016C1265.31 33.3724 1263.88 29.0755 1261.02 26.2109C1258.15 23.3464 1253.14 21.9141 1245.98 21.9141H1196.56ZM1478.52 238.906H1381.84L1362.51 320.547C1361.08 327.708 1360.36 333.438 1360.36 337.734C1360.36 343.464 1361.08 349.193 1362.51 354.922C1365.37 360.651 1371.82 363.516 1381.84 363.516H1388.29V376.406H1308.8V363.516H1315.24C1320.97 363.516 1325.98 362.083 1330.28 359.219C1334.58 354.922 1337.44 348.477 1338.88 339.883L1422.66 11.1719L1454.89 0.429688L1536.53 339.883C1539.4 348.477 1542.98 354.922 1547.27 359.219C1551.57 362.083 1556.58 363.516 1562.31 363.516H1568.76V376.406H1476.38V363.516H1484.97C1493.56 363.516 1498.58 362.083 1500.01 359.219C1501.44 354.922 1502.16 351.341 1502.16 348.477C1502.16 342.747 1501.44 337.734 1500.01 333.438L1478.52 238.906ZM1433.41 47.6953H1431.26L1386.14 226.016H1476.38L1433.41 47.6953Z" fill="#FED7AA"/>
<path d="M43.0234 238.906L44.9737 238.463L44.6199 236.906H43.0234V238.906ZM-53.6562 238.906V236.906H-55.2379L-55.6024 238.445L-53.6562 238.906ZM-72.9922 320.547L-74.9383 320.086L-74.9465 320.12L-74.9534 320.155L-72.9922 320.547ZM-72.9922 354.922L-74.9325 355.407L-74.8792 355.62L-74.781 355.816L-72.9922 354.922ZM-47.2109 363.516H-45.2109V361.516H-47.2109V363.516ZM-47.2109 376.406V378.406H-45.2109V376.406H-47.2109ZM-126.703 376.406H-128.703V378.406H-126.703V376.406ZM-126.703 363.516V361.516H-128.703V363.516H-126.703ZM-105.219 359.219L-104.109 360.883L-103.945 360.773L-103.805 360.633L-105.219 359.219ZM-96.625 339.883L-98.563 339.389L-98.5839 339.471L-98.5978 339.554L-96.625 339.883ZM-12.8359 11.1719L-13.4684 9.27451L-14.5043 9.6198L-14.774 10.6779L-12.8359 11.1719ZM19.3906 0.429688L21.3352 -0.0379868L20.8256 -2.15681L18.7582 -1.46768L19.3906 0.429688ZM101.031 339.883L99.0867 340.35L99.1068 340.434L99.1339 340.515L101.031 339.883ZM111.773 359.219L110.359 360.633L110.499 360.773L110.664 360.883L111.773 359.219ZM133.258 363.516H135.258V361.516H133.258V363.516ZM133.258 376.406V378.406H135.258V376.406H133.258ZM40.875 376.406H38.875V378.406H40.875V376.406ZM40.875 363.516V361.516H38.875V363.516H40.875ZM64.5078 359.219L66.2967 360.113L66.3602 359.986L66.4052 359.851L64.5078 359.219ZM64.5078 333.438L62.5575 333.881L62.5793 333.977L62.6104 334.07L64.5078 333.438ZM-2.09375 47.6953L-0.149399 47.2268L-0.518433 45.6953H-2.09375V47.6953ZM-4.24219 47.6953V45.6953H-5.79919L-6.18109 47.2047L-4.24219 47.6953ZM-49.3594 226.016L-51.2983 225.525L-51.9284 228.016H-49.3594V226.016ZM40.875 226.016V228.016H43.4142L42.8194 225.547L40.875 226.016ZM43.0234 236.906H-53.6562V240.906H43.0234V236.906ZM-55.6024 238.445L-74.9383 320.086L-71.046 321.008L-51.7101 239.367L-55.6024 238.445ZM-74.9534 320.155C-76.3962 327.369 -77.1406 333.246 -77.1406 337.734H-73.1406C-73.1406 333.629 -72.4527 328.048 -71.031 320.939L-74.9534 320.155ZM-77.1406 337.734C-77.1406 343.632 -76.4032 349.524 -74.9325 355.407L-71.0519 354.437C-72.4458 348.861 -73.1406 343.295 -73.1406 337.734H-77.1406ZM-74.781 355.816C-71.4092 362.56 -63.9704 365.516 -53.6562 365.516V361.516C-63.3941 361.516 -68.846 358.742 -71.2033 354.027L-74.781 355.816ZM-53.6562 365.516H-47.2109V361.516H-53.6562V365.516ZM-49.2109 363.516V376.406H-45.2109V363.516H-49.2109ZM-47.2109 374.406H-126.703V378.406H-47.2109V374.406ZM-124.703 376.406V363.516H-128.703V376.406H-124.703ZM-126.703 365.516H-120.258V361.516H-126.703V365.516ZM-120.258 365.516C-114.179 365.516 -108.77 363.99 -104.109 360.883L-106.328 357.555C-110.261 360.177 -114.879 361.516 -120.258 361.516V365.516ZM-103.805 360.633C-99.1101 355.938 -96.1244 349.045 -94.6522 340.212L-98.5978 339.554C-99.9901 347.908 -102.734 353.905 -106.633 357.805L-103.805 360.633ZM-94.687 340.377L-10.8979 11.6659L-14.774 10.6779L-98.563 339.389L-94.687 340.377ZM-12.2035 13.0692L20.0231 2.32706L18.7582 -1.46768L-13.4684 9.27451L-12.2035 13.0692ZM17.4461 0.897362L99.0867 340.35L102.976 339.415L21.3352 -0.0379868L17.4461 0.897362ZM99.1339 340.515C102.052 349.271 105.762 356.035 110.359 360.633L113.188 357.805C109.191 353.808 105.739 347.682 102.929 339.25L99.1339 340.515ZM110.664 360.883C115.325 363.99 120.733 365.516 126.812 365.516V361.516C121.433 361.516 116.816 360.177 112.883 357.555L110.664 360.883ZM126.812 365.516H133.258V361.516H126.812V365.516ZM131.258 363.516V376.406H135.258V363.516H131.258ZM133.258 374.406H40.875V378.406H133.258V374.406ZM42.875 376.406V363.516H38.875V376.406H42.875ZM40.875 365.516H49.4688V361.516H40.875V365.516ZM49.4688 365.516C53.8479 365.516 57.4602 365.154 60.2233 364.364C62.9411 363.588 65.2098 362.287 66.2967 360.113L62.719 358.324C62.3735 359.015 61.4195 359.863 59.1244 360.518C56.8744 361.161 53.6833 361.516 49.4688 361.516V365.516ZM66.4052 359.851C67.8707 355.454 68.6562 351.644 68.6562 348.477H64.6562C64.6562 351.039 64.0095 354.389 62.6104 358.586L66.4052 359.851ZM68.6562 348.477C68.6562 342.587 67.9207 337.352 66.4052 332.805L62.6104 334.07C63.9595 338.117 64.6562 342.908 64.6562 348.477H68.6562ZM66.4581 332.994L44.9737 238.463L41.0732 239.349L62.5575 333.881L66.4581 332.994ZM-2.09375 45.6953H-4.24219V49.6953H-2.09375V45.6953ZM-6.18109 47.2047L-51.2983 225.525L-47.4205 226.506L-2.30328 48.1859L-6.18109 47.2047ZM-49.3594 228.016H40.875V224.016H-49.3594V228.016ZM42.8194 225.547L-0.149399 47.2268L-4.0381 48.1638L38.9306 226.484L42.8194 225.547ZM118.734 359.219L117.32 360.633L117.46 360.773L117.625 360.883L118.734 359.219ZM243.344 346.328L244.593 347.89L244.638 347.854L244.682 347.815L243.344 346.328ZM275.57 288.32L276.313 286.463L274.241 285.634L273.643 287.785L275.57 288.32ZM286.312 292.617L288.261 293.067L288.647 291.397L287.055 290.76L286.312 292.617ZM266.977 376.406V378.406H268.568L268.925 376.856L266.977 376.406ZM45.6875 376.406H43.6875V378.406H45.6875V376.406ZM45.6875 363.516V361.516H43.6875V363.516H45.6875ZM47.8359 21.9141H45.8359V23.9141H47.8359V21.9141ZM47.8359 9.02344V7.02344H45.8359V9.02344H47.8359ZM148.812 9.02344H150.812V7.02344H148.812V9.02344ZM148.812 21.9141V23.9141H150.812V21.9141H148.812ZM118.734 26.2109L117.625 24.5468L117.46 24.6567L117.32 24.7967L118.734 26.2109ZM112.438 346.328C112.438 352.366 113.948 357.261 117.32 360.633L120.149 357.805C117.791 355.447 116.438 351.749 116.438 346.328H112.438ZM117.625 360.883C122.286 363.99 127.694 365.516 133.773 365.516V361.516C128.394 361.516 123.777 360.177 119.844 357.555L117.625 360.883ZM133.773 365.516H191.781V361.516H133.773V365.516ZM191.781 365.516C212.242 365.516 229.882 359.659 244.593 347.89L242.094 344.766C228.16 355.914 211.424 361.516 191.781 361.516V365.516ZM244.682 347.815C259.377 334.589 270.272 314.867 277.497 288.856L273.643 287.785C266.546 313.337 255.956 332.286 242.006 344.842L244.682 347.815ZM274.828 290.177L285.57 294.474L287.055 290.76L276.313 286.463L274.828 290.177ZM284.364 292.167L265.028 375.957L268.925 376.856L288.261 293.067L284.364 292.167ZM266.977 374.406H45.6875V378.406H266.977V374.406ZM47.6875 376.406V363.516H43.6875V376.406H47.6875ZM45.6875 365.516H60.7266V361.516H45.6875V365.516ZM60.7266 365.516C68.0434 365.516 73.7394 364.073 77.1798 360.633L74.3514 357.805C72.0627 360.093 67.7326 361.516 60.7266 361.516V365.516ZM77.1798 360.633C80.5518 357.261 82.0625 352.366 82.0625 346.328H78.0625C78.0625 351.749 76.7086 355.447 74.3514 357.805L77.1798 360.633ZM82.0625 346.328V39.1016H78.0625V346.328H82.0625ZM82.0625 39.1016C82.0625 33.0641 80.5518 28.1687 77.1798 24.7967L74.3514 27.6252C76.7086 29.9824 78.0625 33.6807 78.0625 39.1016H82.0625ZM77.1798 24.7967C73.7394 21.3563 68.0434 19.9141 60.7266 19.9141V23.9141C67.7326 23.9141 72.0627 25.3364 74.3514 27.6252L77.1798 24.7967ZM60.7266 19.9141H47.8359V23.9141H60.7266V19.9141ZM49.8359 21.9141V9.02344H45.8359V21.9141H49.8359ZM47.8359 11.0234H148.812V7.02344H47.8359V11.0234ZM146.812 9.02344V21.9141H150.812V9.02344H146.812ZM148.812 19.9141H133.773V23.9141H148.812V19.9141ZM133.773 19.9141C127.694 19.9141 122.286 21.4396 117.625 24.5468L119.844 27.875C123.777 25.2531 128.394 23.9141 133.773 23.9141V19.9141ZM117.32 24.7967C113.948 28.1687 112.438 33.0641 112.438 39.1016H116.438C116.438 33.6807 117.791 29.9824 120.149 27.6252L117.32 24.7967ZM112.438 39.1016V346.328H116.438V39.1016H112.438ZM205.188 21.9141H203.188V23.9141H205.188V21.9141ZM205.188 9.02344V7.02344H203.188V9.02344H205.188ZM415.734 9.02344L417.637 8.40779L417.189 7.02344H415.734V9.02344ZM439.367 82.0703L440.11 83.9273L441.845 83.2331L441.27 81.4547L439.367 82.0703ZM428.625 86.3672L426.86 87.3084L427.704 88.8898L429.368 88.2241L428.625 86.3672ZM392.102 39.1016L390.773 40.5964L390.822 40.64L390.874 40.6803L392.102 39.1016ZM273.938 26.2109L272.828 24.5468L272.663 24.6567L272.523 24.7967L273.938 26.2109ZM269.641 172.305H267.641V174.305H269.641V172.305ZM362.023 161.562L360.609 160.148L360.531 160.227L360.462 160.313L362.023 161.562ZM372.766 116.445V114.445H370.766V116.445H372.766ZM385.656 116.445H387.656V114.445H385.656V116.445ZM385.656 243.203V245.203H387.656V243.203H385.656ZM372.766 243.203H370.766V245.203H372.766V243.203ZM362.023 198.086L360.359 199.195L360.419 199.284L360.487 199.366L362.023 198.086ZM269.641 185.195V183.195H267.641V185.195H269.641ZM273.938 359.219L272.523 360.633L272.663 360.773L272.828 360.883L273.938 359.219ZM398.547 346.328L399.796 347.89L399.805 347.883L399.813 347.876L398.547 346.328ZM435.07 288.32L435.813 286.463L433.844 285.676L433.173 287.688L435.07 288.32ZM445.812 292.617L447.737 293.16L448.226 291.428L446.555 290.76L445.812 292.617ZM422.18 376.406V378.406H423.694L424.105 376.949L422.18 376.406ZM203.039 376.406H201.039V378.406H203.039V376.406ZM203.039 363.516V361.516H201.039V363.516H203.039ZM207.188 21.9141V9.02344H203.188V21.9141H207.188ZM205.188 11.0234H415.734V7.02344H205.188V11.0234ZM413.831 9.63908L437.464 82.686L441.27 81.4547L417.637 8.40779L413.831 9.63908ZM438.624 80.2134L427.882 84.5102L429.368 88.2241L440.11 83.9273L438.624 80.2134ZM430.39 85.426C418.858 63.8047 406.523 47.7847 393.329 37.5229L390.874 40.6803C403.461 50.4706 415.475 65.961 426.86 87.3084L430.39 85.426ZM393.43 37.6068C380.211 25.8563 365.426 19.9141 349.133 19.9141V23.9141C364.35 23.9141 378.211 29.4302 390.773 40.5964L393.43 37.6068ZM349.133 19.9141H288.977V23.9141H349.133V19.9141ZM288.977 19.9141C282.897 19.9141 277.489 21.4396 272.828 24.5468L275.047 27.875C278.98 25.2531 283.597 23.9141 288.977 23.9141V19.9141ZM272.523 24.7967C269.151 28.1687 267.641 33.0641 267.641 39.1016H271.641C271.641 33.6807 272.994 29.9824 275.352 27.6252L272.523 24.7967ZM267.641 39.1016V172.305H271.641V39.1016H267.641ZM269.641 174.305H331.945V170.305H269.641V174.305ZM331.945 174.305C346.532 174.305 357.304 170.663 363.585 162.812L360.462 160.313C355.285 166.784 346.005 170.305 331.945 170.305V174.305ZM363.438 162.977C371.106 155.308 374.766 143.967 374.766 129.336H370.766C370.766 143.351 367.263 153.494 360.609 160.148L363.438 162.977ZM374.766 129.336V116.445H370.766V129.336H374.766ZM372.766 118.445H385.656V114.445H372.766V118.445ZM383.656 116.445V243.203H387.656V116.445H383.656ZM385.656 241.203H372.766V245.203H385.656V241.203ZM374.766 243.203V234.609H370.766V243.203H374.766ZM374.766 234.609C374.766 218.575 371.123 205.881 363.56 196.806L360.487 199.366C367.247 207.478 370.766 219.134 370.766 234.609H374.766ZM363.688 196.977C357.454 187.627 346.654 183.195 331.945 183.195V187.195C345.882 187.195 355.134 191.358 360.359 199.195L363.688 196.977ZM331.945 183.195H269.641V187.195H331.945V183.195ZM267.641 185.195V346.328H271.641V185.195H267.641ZM267.641 346.328C267.641 352.366 269.151 357.261 272.523 360.633L275.352 357.805C272.994 355.447 271.641 351.749 271.641 346.328H267.641ZM272.828 360.883C277.489 363.99 282.897 365.516 288.977 365.516V361.516C283.597 361.516 278.98 360.177 275.047 357.555L272.828 360.883ZM288.977 365.516H344.836V361.516H288.977V365.516ZM344.836 365.516C366.693 365.516 385.06 359.679 399.796 347.89L397.297 344.766C383.388 355.894 365.947 361.516 344.836 361.516V365.516ZM399.813 347.876C415.944 334.678 428.293 314.976 436.968 288.953L433.173 287.688C424.66 313.228 412.66 332.197 397.28 344.78L399.813 347.876ZM434.328 290.177L445.07 294.474L446.555 290.76L435.813 286.463L434.328 290.177ZM443.888 292.074L420.255 375.863L424.105 376.949L447.737 293.16L443.888 292.074ZM422.18 374.406H203.039V378.406H422.18V374.406ZM205.039 376.406V363.516H201.039V376.406H205.039ZM203.039 365.516H215.93V361.516H203.039V365.516ZM215.93 365.516C223.247 365.516 228.943 364.073 232.383 360.633L229.555 357.805C227.266 360.093 222.936 361.516 215.93 361.516V365.516ZM232.383 360.633C235.755 357.261 237.266 352.366 237.266 346.328H233.266C233.266 351.749 231.912 355.447 229.555 357.805L232.383 360.633ZM237.266 346.328V39.1016H233.266V346.328H237.266ZM237.266 39.1016C237.266 33.0641 235.755 28.1687 232.383 24.7967L229.555 27.6252C231.912 29.9824 233.266 33.6807 233.266 39.1016H237.266ZM232.383 24.7967C228.943 21.3563 223.247 19.9141 215.93 19.9141V23.9141C222.936 23.9141 227.266 25.3364 229.555 27.6252L232.383 24.7967ZM215.93 19.9141H205.188V23.9141H215.93V19.9141ZM497.891 178.75L496.085 177.889L495.679 178.741L496.078 179.596L497.891 178.75ZM573.086 339.883L571.274 340.729L571.285 340.753L571.297 340.777L573.086 339.883ZM585.977 359.219L584.562 360.633L584.792 360.862L585.082 361.008L585.977 359.219ZM609.609 363.516H611.609V361.516H609.609V363.516ZM609.609 376.406V378.406H611.609V376.406H609.609ZM517.227 376.406H515.227V378.406H517.227V376.406ZM517.227 363.516V361.516H515.227V363.516H517.227ZM538.711 361.367L540.125 362.781L540.355 362.552L540.5 362.262L538.711 361.367ZM538.711 344.18L536.892 345.012L536.907 345.043L536.922 345.074L538.711 344.18ZM480.703 217.422L482.522 216.59L480.745 212.707L478.899 216.558L480.703 217.422ZM431.289 320.547L429.485 319.683L429.457 319.742L429.432 319.804L431.289 320.547ZM424.844 337.734L426.633 338.629L426.696 338.502L426.741 338.367L424.844 337.734ZM424.844 361.367L423.43 362.781L423.763 363.115L424.211 363.265L424.844 361.367ZM444.18 363.516H446.18V361.516H444.18V363.516ZM444.18 376.406V378.406H446.18V376.406H444.18ZM362.539 376.406H360.539V378.406H362.539V376.406ZM362.539 363.516V361.516H360.539V363.516H362.539ZM403.359 342.031L405.148 342.926L405.159 342.904L405.169 342.883L403.359 342.031ZM472.109 195.938L473.919 196.789L474.315 195.948L473.927 195.103L472.109 195.938ZM399.062 36.9531L397.165 37.5856L397.2 37.689L397.245 37.7881L399.062 36.9531ZM390.469 26.2109L389.055 27.6252L389.195 27.7652L389.359 27.875L390.469 26.2109ZM368.984 21.9141H366.984V23.9141H368.984V21.9141ZM368.984 9.02344V7.02344H366.984V9.02344H368.984ZM457.07 9.02344H459.07V7.02344H457.07V9.02344ZM457.07 21.9141V23.9141H459.07V21.9141H457.07ZM437.734 47.6953L435.837 48.3278L435.87 48.426L435.912 48.5203L437.734 47.6953ZM489.297 161.562L487.475 162.388L489.262 166.334L491.107 162.414L489.297 161.562ZM540.859 51.9922L542.669 52.8438L542.684 52.8121L542.698 52.78L540.859 51.9922ZM545.156 30.5078L543.216 30.9929L543.235 31.0674L543.259 31.1403L545.156 30.5078ZM517.227 21.9141H515.227V23.9141H517.227V21.9141ZM517.227 9.02344V7.02344H515.227V9.02344H517.227ZM601.016 9.02344H603.016V7.02344H601.016V9.02344ZM601.016 21.9141V23.9141H603.016V21.9141H601.016ZM564.492 39.1016L562.892 37.9016L562.773 38.0609L562.687 38.2406L564.492 39.1016ZM496.078 179.596L571.274 340.729L574.898 339.037L499.703 177.904L496.078 179.596ZM571.297 340.777C575.641 349.465 580.052 356.122 584.562 360.633L587.391 357.805C583.308 353.722 579.125 347.488 574.875 338.988L571.297 340.777ZM585.082 361.008C591.056 363.994 597.089 365.516 603.164 365.516V361.516C597.78 361.516 592.356 360.172 586.871 357.43L585.082 361.008ZM603.164 365.516H609.609V361.516H603.164V365.516ZM607.609 363.516V376.406H611.609V363.516H607.609ZM609.609 374.406H517.227V378.406H609.609V374.406ZM519.227 376.406V363.516H515.227V376.406H519.227ZM517.227 365.516H525.82V361.516H517.227V365.516ZM525.82 365.516C529.451 365.516 532.439 365.335 534.743 364.951C536.923 364.588 538.926 363.981 540.125 362.781L537.297 359.953C537.064 360.186 536.202 360.653 534.085 361.006C532.092 361.338 529.351 361.516 525.82 361.516V365.516ZM540.5 362.262C542.054 359.152 542.859 355.984 542.859 352.773H538.859C538.859 355.292 538.232 357.853 536.922 360.473L540.5 362.262ZM542.859 352.773C542.859 349.563 542.054 346.394 540.5 343.285L536.922 345.074C538.232 347.694 538.859 350.254 538.859 352.773H542.859ZM540.53 343.347L482.522 216.59L478.885 218.254L536.892 345.012L540.53 343.347ZM478.899 216.558L429.485 319.683L433.093 321.411L482.507 218.286L478.899 216.558ZM429.432 319.804C426.562 326.981 424.397 332.751 422.946 337.102L426.741 338.367C428.155 334.124 430.287 328.436 433.146 321.29L429.432 319.804ZM423.055 336.84C421.612 339.726 420.51 342.11 419.764 343.974C419.392 344.906 419.097 345.735 418.892 346.45C418.697 347.135 418.547 347.839 418.547 348.477H422.547C422.547 348.398 422.576 348.118 422.738 347.549C422.892 347.011 423.135 346.318 423.478 345.46C424.165 343.743 425.211 341.472 426.633 338.629L423.055 336.84ZM418.547 348.477C418.547 354.514 420.058 359.409 423.43 362.781L426.258 359.953C423.901 357.596 422.547 353.897 422.547 348.477H418.547ZM424.211 363.265C428.758 364.78 433.993 365.516 439.883 365.516V361.516C434.314 361.516 429.523 360.819 425.476 359.47L424.211 363.265ZM439.883 365.516H444.18V361.516H439.883V365.516ZM442.18 363.516V376.406H446.18V363.516H442.18ZM444.18 374.406H362.539V378.406H444.18V374.406ZM364.539 376.406V363.516H360.539V376.406H364.539ZM362.539 365.516H371.133V361.516H362.539V365.516ZM371.133 365.516C378.727 365.516 385.593 363.227 391.669 358.67L389.269 355.47C383.886 359.508 377.862 361.516 371.133 361.516V365.516ZM391.669 358.67C397.617 354.209 402.129 348.964 405.148 342.926L401.57 341.137C398.86 346.557 394.779 351.337 389.269 355.47L391.669 358.67ZM405.169 342.883L473.919 196.789L470.3 195.086L401.55 341.18L405.169 342.883ZM473.927 195.103L400.88 36.1181L397.245 37.7881L470.292 196.772L473.927 195.103ZM400.96 36.3207C399.368 31.5437 396.191 27.6218 391.578 24.5468L389.359 27.875C393.341 30.5292 395.893 33.7688 397.165 37.5856L400.96 36.3207ZM391.883 24.7967C388.511 21.4248 383.616 19.9141 377.578 19.9141V23.9141C382.999 23.9141 386.697 25.2679 389.055 27.6252L391.883 24.7967ZM377.578 19.9141H368.984V23.9141H377.578V19.9141ZM370.984 21.9141V9.02344H366.984V21.9141H370.984ZM368.984 11.0234H457.07V7.02344H368.984V11.0234ZM455.07 9.02344V21.9141H459.07V9.02344H455.07ZM457.07 19.9141H450.625V23.9141H457.07V19.9141ZM450.625 19.9141C446.196 19.9141 442.489 20.4625 439.632 21.6871C436.717 22.9363 434.622 24.9266 433.689 27.7269L437.483 28.9918C437.982 27.4953 439.109 26.2629 441.208 25.3637C443.363 24.4398 446.46 23.9141 450.625 23.9141V19.9141ZM433.689 27.7269C432.038 32.6799 432.95 39.6669 435.837 48.3278L439.632 47.0629C436.79 38.5362 436.27 32.6326 437.483 28.9918L433.689 27.7269ZM435.912 48.5203L487.475 162.388L491.119 160.737L439.556 46.8703L435.912 48.5203ZM491.107 162.414L542.669 52.8438L539.05 51.1406L487.487 160.711L491.107 162.414ZM542.698 52.78C544.877 47.6955 546.364 43.2591 547.117 39.4938C547.864 35.7596 547.928 32.4976 547.054 29.8754L543.259 31.1403C543.817 32.8149 543.881 35.2821 543.195 38.7093C542.516 42.1055 541.139 46.2628 539.021 51.2043L542.698 52.78ZM547.097 30.0227C546.252 26.6429 544.306 24.0357 541.315 22.326C538.393 20.6568 534.604 19.9141 530.117 19.9141V23.9141C534.224 23.9141 537.238 24.6036 539.33 25.799C541.351 26.9539 542.629 28.6436 543.216 30.9929L547.097 30.0227ZM530.117 19.9141H517.227V23.9141H530.117V19.9141ZM519.227 21.9141V9.02344H515.227V21.9141H519.227ZM517.227 11.0234H601.016V7.02344H517.227V11.0234ZM599.016 9.02344V21.9141H603.016V9.02344H599.016ZM601.016 19.9141H588.125V23.9141H601.016V19.9141ZM588.125 19.9141C584.659 19.9141 580.67 21.6158 576.273 24.5468L578.492 27.875C582.689 25.0769 585.862 23.9141 588.125 23.9141V19.9141ZM576.273 24.5468C571.73 27.5755 567.276 32.0559 562.892 37.9016L566.092 40.3016C570.302 34.6889 574.441 30.5756 578.492 27.875L576.273 24.5468ZM562.687 38.2406L496.085 177.889L499.696 179.611L566.297 39.9625L562.687 38.2406ZM681.023 238.906L682.974 238.463L682.62 236.906H681.023V238.906ZM584.344 238.906V236.906H582.762L582.398 238.445L584.344 238.906ZM565.008 320.547L563.062 320.086L563.054 320.12L563.047 320.155L565.008 320.547ZM565.008 354.922L563.068 355.407L563.121 355.62L563.219 355.816L565.008 354.922ZM590.789 363.516H592.789V361.516H590.789V363.516ZM590.789 376.406V378.406H592.789V376.406H590.789ZM511.297 376.406H509.297V378.406H511.297V376.406ZM511.297 363.516V361.516H509.297V363.516H511.297ZM532.781 359.219L533.891 360.883L534.055 360.773L534.195 360.633L532.781 359.219ZM541.375 339.883L539.437 339.389L539.416 339.471L539.402 339.554L541.375 339.883ZM625.164 11.1719L624.532 9.27451L623.496 9.6198L623.226 10.6779L625.164 11.1719ZM657.391 0.429688L659.335 -0.0379868L658.826 -2.15681L656.758 -1.46768L657.391 0.429688ZM739.031 339.883L737.087 340.35L737.107 340.434L737.134 340.515L739.031 339.883ZM749.773 359.219L748.359 360.633L748.499 360.773L748.664 360.883L749.773 359.219ZM771.258 363.516H773.258V361.516H771.258V363.516ZM771.258 376.406V378.406H773.258V376.406H771.258ZM678.875 376.406H676.875V378.406H678.875V376.406ZM678.875 363.516V361.516H676.875V363.516H678.875ZM702.508 359.219L704.297 360.113L704.36 359.986L704.405 359.851L702.508 359.219ZM702.508 333.438L700.558 333.881L700.579 333.977L700.61 334.07L702.508 333.438ZM635.906 47.6953L637.851 47.2268L637.482 45.6953H635.906V47.6953ZM633.758 47.6953V45.6953H632.201L631.819 47.2047L633.758 47.6953ZM588.641 226.016L586.702 225.525L586.072 228.016H588.641V226.016ZM678.875 226.016V228.016H681.414L680.819 225.547L678.875 226.016ZM681.023 236.906H584.344V240.906H681.023V236.906ZM582.398 238.445L563.062 320.086L566.954 321.008L586.29 239.367L582.398 238.445ZM563.047 320.155C561.604 327.369 560.859 333.246 560.859 337.734H564.859C564.859 333.629 565.547 328.048 566.969 320.939L563.047 320.155ZM560.859 337.734C560.859 343.632 561.597 349.524 563.068 355.407L566.948 354.437C565.554 348.861 564.859 343.295 564.859 337.734H560.859ZM563.219 355.816C566.591 362.56 574.03 365.516 584.344 365.516V361.516C574.606 361.516 569.154 358.742 566.797 354.027L563.219 355.816ZM584.344 365.516H590.789V361.516H584.344V365.516ZM588.789 363.516V376.406H592.789V363.516H588.789ZM590.789 374.406H511.297V378.406H590.789V374.406ZM513.297 376.406V363.516H509.297V376.406H513.297ZM511.297 365.516H517.742V361.516H511.297V365.516ZM517.742 365.516C523.821 365.516 529.23 363.99 533.891 360.883L531.672 357.555C527.739 360.177 523.121 361.516 517.742 361.516V365.516ZM534.195 360.633C538.89 355.938 541.876 349.045 543.348 340.212L539.402 339.554C538.01 347.908 535.266 353.905 531.367 357.805L534.195 360.633ZM543.313 340.377L627.102 11.6659L623.226 10.6779L539.437 339.389L543.313 340.377ZM625.797 13.0692L658.023 2.32706L656.758 -1.46768L624.532 9.27451L625.797 13.0692ZM655.446 0.897362L737.087 340.35L740.976 339.415L659.335 -0.0379868L655.446 0.897362ZM737.134 340.515C740.052 349.271 743.762 356.035 748.359 360.633L751.188 357.805C747.191 353.808 743.739 347.682 740.929 339.25L737.134 340.515ZM748.664 360.883C753.325 363.99 758.733 365.516 764.812 365.516V361.516C759.433 361.516 754.816 360.177 750.883 357.555L748.664 360.883ZM764.812 365.516H771.258V361.516H764.812V365.516ZM769.258 363.516V376.406H773.258V363.516H769.258ZM771.258 374.406H678.875V378.406H771.258V374.406ZM680.875 376.406V363.516H676.875V376.406H680.875ZM678.875 365.516H687.469V361.516H678.875V365.516ZM687.469 365.516C691.848 365.516 695.46 365.154 698.223 364.364C700.941 363.588 703.21 362.287 704.297 360.113L700.719 358.324C700.373 359.015 699.42 359.863 697.124 360.518C694.874 361.161 691.683 361.516 687.469 361.516V365.516ZM704.405 359.851C705.871 355.454 706.656 351.644 706.656 348.477H702.656C702.656 351.039 702.009 354.389 700.61 358.586L704.405 359.851ZM706.656 348.477C706.656 342.587 705.921 337.352 704.405 332.805L700.61 334.07C701.959 338.117 702.656 342.908 702.656 348.477H706.656ZM704.458 332.994L682.974 238.463L679.073 239.349L700.558 333.881L704.458 332.994ZM635.906 45.6953H633.758V49.6953H635.906V45.6953ZM631.819 47.2047L586.702 225.525L590.58 226.506L635.697 48.1859L631.819 47.2047ZM588.641 228.016H678.875V224.016H588.641V228.016ZM680.819 225.547L637.851 47.2268L633.962 48.1638L676.931 226.484L680.819 225.547ZM883.492 290.469L881.717 291.39L882.277 292.469H883.492V290.469ZM887.789 290.469V292.469H889.789V290.469H887.789ZM851.266 21.9141H849.266V23.9141H851.266V21.9141ZM851.266 9.02344V7.02344H849.266V9.02344H851.266ZM937.203 9.02344H939.203V7.02344H937.203V9.02344ZM937.203 21.9141V23.9141H939.203V21.9141H937.203ZM904.977 26.2109L903.867 24.5468L903.702 24.6567L903.562 24.7967L904.977 26.2109ZM900.68 376.406V378.406H902.68V376.406H900.68ZM887.789 376.406L886.007 377.315L886.564 378.406H887.789V376.406ZM724.508 56.2891L726.289 55.3803L725.733 54.2891H724.508V56.2891ZM720.211 56.2891V54.2891H718.211V56.2891H720.211ZM724.508 359.219L723.094 360.633L723.234 360.773L723.398 360.883L724.508 359.219ZM756.734 363.516H758.734V361.516H756.734V363.516ZM756.734 376.406V378.406H758.734V376.406H756.734ZM670.797 376.406H668.797V378.406H670.797V376.406ZM670.797 363.516V361.516H668.797V363.516H670.797ZM703.023 359.219L704.438 360.633L703.023 359.219ZM703.023 26.2109L704.438 24.7967L703.023 26.2109ZM675.094 21.9141H673.094V23.9141H675.094V21.9141ZM675.094 9.02344V7.02344H673.094V9.02344H675.094ZM737.398 9.02344L739.174 8.10201L738.614 7.02344H737.398V9.02344ZM883.492 292.469H887.789V288.469H883.492V292.469ZM889.789 290.469V39.1016H885.789V290.469H889.789ZM889.789 39.1016C889.789 33.0641 888.278 28.1687 884.906 24.7967L882.078 27.6252C884.435 29.9824 885.789 33.6807 885.789 39.1016H889.789ZM884.906 24.7967C881.466 21.3563 875.77 19.9141 868.453 19.9141V23.9141C875.459 23.9141 879.789 25.3364 882.078 27.6252L884.906 24.7967ZM868.453 19.9141H851.266V23.9141H868.453V19.9141ZM853.266 21.9141V9.02344H849.266V21.9141H853.266ZM851.266 11.0234H937.203V7.02344H851.266V11.0234ZM935.203 9.02344V21.9141H939.203V9.02344H935.203ZM937.203 19.9141H920.016V23.9141H937.203V19.9141ZM920.016 19.9141C913.937 19.9141 908.528 21.4396 903.867 24.5468L906.086 27.875C910.019 25.2531 914.636 23.9141 920.016 23.9141V19.9141ZM903.562 24.7967C900.19 28.1687 898.68 33.0641 898.68 39.1016H902.68C902.68 33.6807 904.034 29.9824 906.391 27.6252L903.562 24.7967ZM898.68 39.1016V376.406H902.68V39.1016H898.68ZM900.68 374.406H887.789V378.406H900.68V374.406ZM889.571 375.497L726.289 55.3803L722.726 57.1978L886.007 377.315L889.571 375.497ZM724.508 54.2891H720.211V58.2891H724.508V54.2891ZM718.211 56.2891V346.328H722.211V56.2891H718.211ZM718.211 346.328C718.211 352.366 719.722 357.261 723.094 360.633L725.922 357.805C723.565 355.447 722.211 351.749 722.211 346.328H718.211ZM723.398 360.883C728.059 363.99 733.468 365.516 739.547 365.516V361.516C734.168 361.516 729.55 360.177 725.617 357.555L723.398 360.883ZM739.547 365.516H756.734V361.516H739.547V365.516ZM754.734 363.516V376.406H758.734V363.516H754.734ZM756.734 374.406H670.797V378.406H756.734V374.406ZM672.797 376.406V363.516H668.797V376.406H672.797ZM670.797 365.516H687.984V361.516H670.797V365.516ZM687.984 365.516C695.301 365.516 700.997 364.073 704.438 360.633L701.609 357.805C699.32 360.093 694.99 361.516 687.984 361.516V365.516ZM704.438 360.633C707.81 357.261 709.32 352.366 709.32 346.328H705.32C705.32 351.749 703.966 355.447 701.609 357.805L704.438 360.633ZM709.32 346.328V39.1016H705.32V346.328H709.32ZM709.32 39.1016C709.32 33.0641 707.81 28.1687 704.438 24.7967L701.609 27.6252C703.966 29.9824 705.32 33.6807 705.32 39.1016H709.32ZM704.438 24.7967C700.997 21.3563 695.301 19.9141 687.984 19.9141V23.9141C694.99 23.9141 699.32 25.3364 701.609 27.6252L704.438 24.7967ZM687.984 19.9141H675.094V23.9141H687.984V19.9141ZM677.094 21.9141V9.02344H673.094V21.9141H677.094ZM675.094 11.0234H737.398V7.02344H675.094V11.0234ZM735.623 9.94487L881.717 291.39L885.267 289.547L739.174 8.10201L735.623 9.94487ZM1012.91 60.5859L1011.29 61.7569L1011.31 61.7791L1011.33 61.8008L1012.91 60.5859ZM911.938 26.2109L911.043 24.4221L910.932 24.4778L910.828 24.5468L911.938 26.2109ZM1008.62 329.141L1010.08 330.509L1010.1 330.486L1010.12 330.464L1008.62 329.141ZM838.891 21.9141H836.891V23.9141H838.891V21.9141ZM838.891 9.02344V7.02344H836.891V9.02344H838.891ZM1040.84 51.9922L1039.36 53.3301L1039.38 53.3501L1039.39 53.3697L1040.84 51.9922ZM1042.99 331.289L1044.51 332.591L1044.53 332.573L1044.54 332.556L1042.99 331.289ZM836.742 376.406H834.742V378.406H836.742V376.406ZM836.742 363.516V361.516H834.742V363.516H836.742ZM1042.84 189.492C1042.84 127.835 1033.55 84.2789 1014.5 59.371L1011.33 61.8008C1029.52 85.5908 1038.84 127.972 1038.84 189.492H1042.84ZM1014.54 59.415C995.524 33.0914 969.128 19.9141 935.57 19.9141V23.9141C967.898 23.9141 993.065 36.518 1011.29 61.7569L1014.54 59.415ZM935.57 19.9141C925.392 19.9141 917.163 21.362 911.043 24.4221L912.832 27.9998C918.17 25.3307 925.697 23.9141 935.57 23.9141V19.9141ZM910.828 24.5468C905.907 27.8277 903.492 32.7898 903.492 39.1016H907.492C907.492 33.955 909.374 30.3233 913.047 27.875L910.828 24.5468ZM903.492 39.1016V346.328H907.492V39.1016H903.492ZM903.492 346.328C903.492 352.64 905.907 357.602 910.828 360.883L913.047 357.555C909.374 355.106 907.492 351.475 907.492 346.328H903.492ZM910.828 360.883C915.558 364.036 921.716 365.516 929.125 365.516V361.516C922.211 361.516 916.911 360.131 913.047 357.555L910.828 360.883ZM929.125 365.516C961.186 365.516 988.212 353.83 1010.08 330.509L1007.16 327.773C986.053 350.285 960.085 361.516 929.125 361.516V365.516ZM1010.12 330.464C1021.16 317.95 1029.32 299.874 1034.74 276.417C1040.15 252.945 1042.84 223.959 1042.84 189.492H1038.84C1038.84 223.776 1036.16 252.439 1030.84 275.517C1025.51 298.609 1017.56 315.982 1007.12 327.817L1010.12 330.464ZM873.117 39.1016C873.117 33.0641 871.606 28.1687 868.234 24.7967L865.406 27.6252C867.763 29.9824 869.117 33.6807 869.117 39.1016H873.117ZM868.234 24.7967C864.794 21.3563 859.098 19.9141 851.781 19.9141V23.9141C858.787 23.9141 863.117 25.3364 865.406 27.6252L868.234 24.7967ZM851.781 19.9141H838.891V23.9141H851.781V19.9141ZM840.891 21.9141V9.02344H836.891V21.9141H840.891ZM838.891 11.0234H935.57V7.02344H838.891V11.0234ZM935.57 11.0234C979.5 11.0234 1014.01 25.1716 1039.36 53.3301L1042.33 50.6543C1016.11 21.5211 980.443 7.02344 935.57 7.02344V11.0234ZM1039.39 53.3697C1066.11 81.49 1079.66 125.291 1079.66 185.195H1083.66C1083.66 124.788 1070.01 79.7861 1042.29 50.6147L1039.39 53.3697ZM1079.66 185.195C1079.66 250.885 1066.8 299.032 1041.44 330.023L1044.54 332.556C1070.75 300.525 1083.66 251.277 1083.66 185.195H1079.66ZM1041.47 329.987C1016.17 359.509 978.839 374.406 929.125 374.406V378.406C979.672 378.406 1018.25 363.225 1044.51 332.591L1041.47 329.987ZM929.125 374.406H836.742V378.406H929.125V374.406ZM838.742 376.406V363.516H834.742V376.406H838.742ZM836.742 365.516H851.781V361.516H836.742V365.516ZM851.781 365.516C859.098 365.516 864.794 364.073 868.234 360.633L865.406 357.805C863.117 360.093 858.787 361.516 851.781 361.516V365.516ZM868.234 360.633C871.606 357.261 873.117 352.366 873.117 346.328H869.117C869.117 351.749 867.763 355.447 865.406 357.805L868.234 360.633ZM873.117 346.328V39.1016H869.117V346.328H873.117ZM1150.93 189.492L1150.65 187.512L1148.12 187.874L1149.08 190.244L1150.93 189.492ZM1215.38 348.477L1213.53 349.228L1213.56 349.301L1213.59 349.371L1215.38 348.477ZM1223.98 361.367L1222.56 362.781L1222.9 363.115L1223.34 363.265L1223.98 361.367ZM1249.76 363.516H1251.76V361.516H1249.76V363.516ZM1249.76 376.406V378.406H1251.76V376.406H1249.76ZM1189.6 376.406L1187.73 377.123L1188.23 378.406H1189.6V376.406ZM1118.7 191.641L1120.57 190.924L1120.08 189.641H1118.7V191.641ZM1069.29 191.641V189.641H1067.29V191.641H1069.29ZM1073.59 359.219L1072.17 360.633L1072.31 360.773L1072.48 360.883L1073.59 359.219ZM1101.52 363.516H1103.52V361.516H1101.52V363.516ZM1101.52 376.406V378.406H1103.52V376.406H1101.52ZM1002.69 376.406H1000.69V378.406H1002.69V376.406ZM1002.69 363.516V361.516H1000.69V363.516H1002.69ZM1002.69 21.9141H1000.69V23.9141H1002.69V21.9141ZM1002.69 9.02344V7.02344H1000.69V9.02344H1002.69ZM1200.34 30.5078L1199.06 32.0443L1199.09 32.0693L1199.12 32.0931L1200.34 30.5078ZM1069.29 178.75H1067.29V180.75H1069.29V178.75ZM1172.41 43.3984L1170.93 44.7364L1170.96 44.7755L1171 44.8127L1172.41 43.3984ZM1073.59 26.2109L1072.48 24.5468L1072.31 24.6567L1072.17 24.7967L1073.59 26.2109ZM1226.27 94.9609C1226.27 123.235 1218.51 144.867 1203.23 160.148L1206.05 162.977C1222.28 146.747 1230.27 123.979 1230.27 94.9609H1226.27ZM1203.23 160.148C1187.74 175.63 1170.23 184.715 1150.65 187.512L1151.21 191.472C1171.74 188.54 1190.03 179.006 1206.05 162.977L1203.23 160.148ZM1149.08 190.244L1213.53 349.228L1217.24 347.725L1152.78 188.741L1149.08 190.244ZM1213.59 349.371C1216.51 355.194 1219.48 359.703 1222.56 362.781L1225.39 359.953C1222.74 357.302 1219.99 353.217 1217.17 347.582L1213.59 349.371ZM1223.34 363.265C1227.83 364.761 1232.34 365.516 1236.87 365.516V361.516C1232.8 361.516 1228.71 360.838 1224.61 359.47L1223.34 363.265ZM1236.87 365.516H1249.76V361.516H1236.87V365.516ZM1247.76 363.516V376.406H1251.76V363.516H1247.76ZM1249.76 374.406H1189.6V378.406H1249.76V374.406ZM1191.47 375.69L1120.57 190.924L1116.84 192.357L1187.73 377.123L1191.47 375.69ZM1118.7 189.641H1069.29V193.641H1118.7V189.641ZM1067.29 191.641V346.328H1071.29V191.641H1067.29ZM1067.29 346.328C1067.29 352.366 1068.8 357.261 1072.17 360.633L1075 357.805C1072.64 355.447 1071.29 351.749 1071.29 346.328H1067.29ZM1072.48 360.883C1077.14 363.99 1082.55 365.516 1088.62 365.516V361.516C1083.25 361.516 1078.63 360.177 1074.7 357.555L1072.48 360.883ZM1088.62 365.516H1101.52V361.516H1088.62V365.516ZM1099.52 363.516V376.406H1103.52V363.516H1099.52ZM1101.52 374.406H1002.69V378.406H1101.52V374.406ZM1004.69 376.406V363.516H1000.69V376.406H1004.69ZM1002.69 365.516H1015.58V361.516H1002.69V365.516ZM1015.58 365.516C1022.9 365.516 1028.59 364.073 1032.03 360.633L1029.2 357.805C1026.91 360.093 1022.58 361.516 1015.58 361.516V365.516ZM1032.03 360.633C1035.4 357.261 1036.91 352.366 1036.91 346.328H1032.91C1032.91 351.749 1031.56 355.447 1029.2 357.805L1032.03 360.633ZM1036.91 346.328V39.1016H1032.91V346.328H1036.91ZM1036.91 39.1016C1036.91 33.0641 1035.4 28.1687 1032.03 24.7967L1029.2 27.6252C1031.56 29.9824 1032.91 33.6807 1032.91 39.1016H1036.91ZM1032.03 24.7967C1028.59 21.3563 1022.9 19.9141 1015.58 19.9141V23.9141C1022.58 23.9141 1026.91 25.3364 1029.2 27.6252L1032.03 24.7967ZM1015.58 19.9141H1002.69V23.9141H1015.58V19.9141ZM1004.69 21.9141V9.02344H1000.69V21.9141H1004.69ZM1002.69 11.0234H1125.15V7.02344H1002.69V11.0234ZM1125.15 11.0234C1157.84 11.0234 1182.37 18.1342 1199.06 32.0443L1201.62 28.9714C1183.94 14.2356 1158.34 7.02344 1125.15 7.02344V11.0234ZM1199.12 32.0931C1217.14 45.9536 1226.27 66.7844 1226.27 94.9609H1230.27C1230.27 65.8458 1220.78 43.7078 1201.56 28.9226L1199.12 32.0931ZM1069.29 180.75H1116.55V176.75H1069.29V180.75ZM1116.55 180.75C1138.47 180.75 1156.87 174.161 1171.6 160.901L1168.93 157.927C1155.02 170.449 1137.61 176.75 1116.55 176.75V180.75ZM1171.6 160.901C1186.5 147.495 1193.75 126.798 1193.75 99.2578H1189.75C1189.75 126.145 1182.68 145.552 1168.93 157.927L1171.6 160.901ZM1193.75 99.2578C1193.75 74.5622 1187.21 55.3625 1173.83 41.9842L1171 44.8127C1183.4 57.2156 1189.75 75.2555 1189.75 99.2578H1193.75ZM1173.9 42.0605C1160.5 27.1655 1139.8 19.9141 1112.26 19.9141V23.9141C1139.14 23.9141 1158.55 30.9855 1170.93 44.7364L1173.9 42.0605ZM1112.26 19.9141H1088.62V23.9141H1112.26V19.9141ZM1088.62 19.9141C1082.55 19.9141 1077.14 21.4396 1072.48 24.5468L1074.7 27.875C1078.63 25.2531 1083.25 23.9141 1088.62 23.9141V19.9141ZM1072.17 24.7967C1068.8 28.1687 1067.29 33.0641 1067.29 39.1016H1071.29C1071.29 33.6807 1072.64 29.9824 1075 27.6252L1072.17 24.7967ZM1067.29 39.1016V178.75H1071.29V39.1016H1067.29ZM1196.56 21.9141H1194.56V23.9141H1196.56V21.9141ZM1196.56 9.02344V7.02344H1194.56V9.02344H1196.56ZM1368.44 9.02344H1370.44V7.02344H1368.44V9.02344ZM1368.44 21.9141V23.9141H1370.44V21.9141H1368.44ZM1303.98 26.2109L1302.88 24.5468L1302.71 24.6567L1302.57 24.7967L1303.98 26.2109ZM1303.98 359.219L1302.57 360.633L1302.71 360.773L1302.88 360.883L1303.98 359.219ZM1368.44 363.516H1370.44V361.516H1368.44V363.516ZM1368.44 376.406V378.406H1370.44V376.406H1368.44ZM1196.56 376.406H1194.56V378.406H1196.56V376.406ZM1196.56 363.516V361.516H1194.56V363.516H1196.56ZM1198.56 21.9141V9.02344H1194.56V21.9141H1198.56ZM1196.56 11.0234H1368.44V7.02344H1196.56V11.0234ZM1366.44 9.02344V21.9141H1370.44V9.02344H1366.44ZM1368.44 19.9141H1319.02V23.9141H1368.44V19.9141ZM1319.02 19.9141C1312.94 19.9141 1307.54 21.4396 1302.88 24.5468L1305.09 27.875C1309.03 25.2531 1313.64 23.9141 1319.02 23.9141V19.9141ZM1302.57 24.7967C1299.2 28.1687 1297.69 33.0641 1297.69 39.1016H1301.69C1301.69 33.6807 1303.04 29.9824 1305.4 27.6252L1302.57 24.7967ZM1297.69 39.1016V346.328H1301.69V39.1016H1297.69ZM1297.69 346.328C1297.69 352.366 1299.2 357.261 1302.57 360.633L1305.4 357.805C1303.04 355.447 1301.69 351.749 1301.69 346.328H1297.69ZM1302.88 360.883C1307.54 363.99 1312.94 365.516 1319.02 365.516V361.516C1313.64 361.516 1309.03 360.177 1305.09 357.555L1302.88 360.883ZM1319.02 365.516H1368.44V361.516H1319.02V365.516ZM1366.44 363.516V376.406H1370.44V363.516H1366.44ZM1368.44 374.406H1196.56V378.406H1368.44V374.406ZM1198.56 376.406V363.516H1194.56V376.406H1198.56ZM1196.56 365.516H1245.98V361.516H1196.56V365.516ZM1245.98 365.516C1253.29 365.516 1258.99 364.073 1262.43 360.633L1259.6 357.805C1257.31 360.093 1252.98 361.516 1245.98 361.516V365.516ZM1262.43 360.633C1265.8 357.261 1267.31 352.366 1267.31 346.328H1263.31C1263.31 351.749 1261.96 355.447 1259.6 357.805L1262.43 360.633ZM1267.31 346.328V39.1016H1263.31V346.328H1267.31ZM1267.31 39.1016C1267.31 33.0641 1265.8 28.1687 1262.43 24.7967L1259.6 27.6252C1261.96 29.9824 1263.31 33.6807 1263.31 39.1016H1267.31ZM1262.43 24.7967C1258.99 21.3563 1253.29 19.9141 1245.98 19.9141V23.9141C1252.98 23.9141 1257.31 25.3364 1259.6 27.6252L1262.43 24.7967ZM1245.98 19.9141H1196.56V23.9141H1245.98V19.9141ZM1478.52 238.906L1480.47 238.463L1480.12 236.906H1478.52V238.906ZM1381.84 238.906V236.906H1380.26L1379.9 238.445L1381.84 238.906ZM1362.51 320.547L1360.56 320.086L1360.55 320.12L1360.55 320.155L1362.51 320.547ZM1362.51 354.922L1360.57 355.407L1360.62 355.62L1360.72 355.816L1362.51 354.922ZM1388.29 363.516H1390.29V361.516H1388.29V363.516ZM1388.29 376.406V378.406H1390.29V376.406H1388.29ZM1308.8 376.406H1306.8V378.406H1308.8V376.406ZM1308.8 363.516V361.516H1306.8V363.516H1308.8ZM1330.28 359.219L1331.39 360.883L1331.56 360.773L1331.7 360.633L1330.28 359.219ZM1338.88 339.883L1336.94 339.389L1336.92 339.471L1336.9 339.554L1338.88 339.883ZM1422.66 11.1719L1422.03 9.27451L1421 9.6198L1420.73 10.6779L1422.66 11.1719ZM1454.89 0.429688L1456.84 -0.0379868L1456.33 -2.15681L1454.26 -1.46768L1454.89 0.429688ZM1536.53 339.883L1534.59 340.35L1534.61 340.434L1534.63 340.515L1536.53 339.883ZM1547.27 359.219L1545.86 360.633L1546 360.773L1546.16 360.883L1547.27 359.219ZM1568.76 363.516H1570.76V361.516H1568.76V363.516ZM1568.76 376.406V378.406H1570.76V376.406H1568.76ZM1476.38 376.406H1474.38V378.406H1476.38V376.406ZM1476.38 363.516V361.516H1474.38V363.516H1476.38ZM1500.01 359.219L1501.8 360.113L1501.86 359.986L1501.91 359.851L1500.01 359.219ZM1500.01 333.438L1498.06 333.881L1498.08 333.977L1498.11 334.07L1500.01 333.438ZM1433.41 47.6953L1435.35 47.2268L1434.98 45.6953H1433.41V47.6953ZM1431.26 47.6953V45.6953H1429.7L1429.32 47.2047L1431.26 47.6953ZM1386.14 226.016L1384.2 225.525L1383.57 228.016H1386.14V226.016ZM1476.38 226.016V228.016H1478.91L1478.32 225.547L1476.38 226.016ZM1478.52 236.906H1381.84V240.906H1478.52V236.906ZM1379.9 238.445L1360.56 320.086L1364.45 321.008L1383.79 239.367L1379.9 238.445ZM1360.55 320.155C1359.1 327.369 1358.36 333.246 1358.36 337.734H1362.36C1362.36 333.629 1363.05 328.048 1364.47 320.939L1360.55 320.155ZM1358.36 337.734C1358.36 343.632 1359.1 349.524 1360.57 355.407L1364.45 354.437C1363.05 348.861 1362.36 343.295 1362.36 337.734H1358.36ZM1360.72 355.816C1364.09 362.56 1371.53 365.516 1381.84 365.516V361.516C1372.11 361.516 1366.65 358.742 1364.3 354.027L1360.72 355.816ZM1381.84 365.516H1388.29V361.516H1381.84V365.516ZM1386.29 363.516V376.406H1390.29V363.516H1386.29ZM1388.29 374.406H1308.8V378.406H1388.29V374.406ZM1310.8 376.406V363.516H1306.8V376.406H1310.8ZM1308.8 365.516H1315.24V361.516H1308.8V365.516ZM1315.24 365.516C1321.32 365.516 1326.73 363.99 1331.39 360.883L1329.17 357.555C1325.24 360.177 1320.62 361.516 1315.24 361.516V365.516ZM1331.7 360.633C1336.39 355.938 1339.38 349.045 1340.85 340.212L1336.9 339.554C1335.51 347.908 1332.77 353.905 1328.87 357.805L1331.7 360.633ZM1340.81 340.377L1424.6 11.6659L1420.73 10.6779L1336.94 339.389L1340.81 340.377ZM1423.3 13.0692L1455.52 2.32706L1454.26 -1.46768L1422.03 9.27451L1423.3 13.0692ZM1452.95 0.897362L1534.59 340.35L1538.48 339.415L1456.84 -0.0379868L1452.95 0.897362ZM1534.63 340.515C1537.55 349.271 1541.26 356.035 1545.86 360.633L1548.69 357.805C1544.69 353.808 1541.24 347.682 1538.43 339.25L1534.63 340.515ZM1546.16 360.883C1550.82 363.99 1556.23 365.516 1562.31 365.516V361.516C1556.93 361.516 1552.32 360.177 1548.38 357.555L1546.16 360.883ZM1562.31 365.516H1568.76V361.516H1562.31V365.516ZM1566.76 363.516V376.406H1570.76V363.516H1566.76ZM1568.76 374.406H1476.38V378.406H1568.76V374.406ZM1478.38 376.406V363.516H1474.38V376.406H1478.38ZM1476.38 365.516H1484.97V361.516H1476.38V365.516ZM1484.97 365.516C1489.35 365.516 1492.96 365.154 1495.72 364.364C1498.44 363.588 1500.71 362.287 1501.8 360.113L1498.22 358.324C1497.87 359.015 1496.92 359.863 1494.62 360.518C1492.37 361.161 1489.18 361.516 1484.97 361.516V365.516ZM1501.91 359.851C1503.37 355.454 1504.16 351.644 1504.16 348.477H1500.16C1500.16 351.039 1499.51 354.389 1498.11 358.586L1501.91 359.851ZM1504.16 348.477C1504.16 342.587 1503.42 337.352 1501.91 332.805L1498.11 334.07C1499.46 338.117 1500.16 342.908 1500.16 348.477H1504.16ZM1501.96 332.994L1480.47 238.463L1476.57 239.349L1498.06 333.881L1501.96 332.994ZM1433.41 45.6953H1431.26V49.6953H1433.41V45.6953ZM1429.32 47.2047L1384.2 225.525L1388.08 226.506L1433.2 48.1859L1429.32 47.2047ZM1386.14 228.016H1476.38V224.016H1386.14V228.016ZM1478.32 225.547L1435.35 47.2268L1431.46 48.1638L1474.43 226.484L1478.32 225.547Z" fill="#9A3412" fill-opacity="0.4" mask="url(#path-1-outside-1_2_5)"/>
</svg>
